<svg xmlns="http://www.w3.org/2000/svg" viewBox="0 0 991.83 161.76"><defs><style>.cls-1{fill:#fff;}</style></defs><title>Asset 1</title><g id="Layer_2" data-name="Layer 2"><g id="home"><path class="cls-1" d="M0,159V3.75H34.08q20.74,0,33,9.14T79.35,40.32A36.89,36.89,0,0,1,72.4,62.71Q65.45,72.21,53,77.13q16.41,4,24.79,14.42A35.67,35.67,0,0,1,86.2,114.4q0,12.43-4.87,21.22A35.82,35.82,0,0,1,68.89,149.1Q53.56,158.94,37.51,159ZM17.49,74.78h13S49.26,71.62,54,65.29,61.13,51,61.13,41.5a32,32,0,0,0-5-17.47C52.86,18.8,40.93,12.19,40.93,12.19L17.49,16.88Zm0,6.8V148.4l17.85,2.34s15.21-2.89,21.46-8.67,9.38-13.83,9.38-24.15S62.75,99,55.9,92,31.19,81.58,31.19,81.58Z"/><path class="cls-1" d="M163.56,159H146.07V101.28L105.31,3.75H125l33.36,89.09,31.2-89.09h9l-35,96.35Z"/><path class="cls-1" d="M267.07,159V3.75h34.08a66.48,66.48,0,0,1,38.41,11.72,64.82,64.82,0,0,1,16.06,15.24q6.84,9.15,11,23.33a112,112,0,0,1,4.15,31.53q0,24.86-9.55,42Q343.71,159,304.58,159Zm33.9-8s27.53-5.86,36.79-17.58,13.89-28.91,13.89-51.57q0-26.25-11-44.9c-7.34-12.42-28.49-24.73-28.49-24.73l-27.42,4.92V148.87Z"/><path class="cls-1" d="M396.55,159V3.75h72.31l-1.8,15.71-33.54-7.27-19.48,4v57h40v8.91H414v68.46L470,143.24,468.14,159Z"/><path class="cls-1" d="M517.19,73.14h38.23v8.91H517.19V159H499.7V3.75h70.51V19.46l-33.36-7.27-19.66,4Z"/><path class="cls-1" d="M573.81,159,627.37,0h2.71l53.56,159-21.21-4.84-12-37.36H596.9L583.55,159Zm25.79-51.11h48l-23.8-76Z"/><path class="cls-1" d="M792.2,3.75V98.93q0,21.81-3.61,32.82a63.42,63.42,0,0,1-5.14,11.14,34,34,0,0,1-8.2,10q-11.91,8.91-29.76,8.91-44.72,0-44.72-59.78V3.75h18.39v100.1q0,6.81.18,11a73.56,73.56,0,0,0,1.9,12,38.73,38.73,0,0,0,4.69,12.42,26.63,26.63,0,0,0,9.37,8.44,29.54,29.54,0,0,0,15.24,3.75q33.72,0,33.72-46.88V3.75Z"/><path class="cls-1" d="M823.76,159V3.75h17.67V146.29l17.67,4.22,32.64-7.27L889.58,159Z"/><path class="cls-1" d="M954.14,159H936.65V15l-12.27-1.87L900,20.4,899,3.75h92.87l-.9,16.65L966.4,13.13,954.14,15Z"/></g></g></svg>